<?xml version="1.0" encoding="UTF-8"?>
<!DOCTYPE svg PUBLIC "-//W3C//DTD SVG 1.1//EN" "http://www.w3.org/Graphics/SVG/1.1/DTD/svg11.dtd">
<svg version="1.2" width="25mm" height="25mm" viewBox="0 0 2500 2500" preserveAspectRatio="xMidYMid" fill-rule="evenodd" stroke-width="28.222" stroke-linejoin="round" xmlns="http://www.w3.org/2000/svg" xmlns:ooo="http://xml.openoffice.org/svg/export" xmlns:xlink="http://www.w3.org/1999/xlink" xmlns:presentation="http://sun.com/xmlns/staroffice/presentation" xmlns:smil="http://www.w3.org/2001/SMIL20/" xmlns:anim="urn:oasis:names:tc:opendocument:xmlns:animation:1.0" xml:space="preserve">
 <defs class="ClipPathGroup">
  <clipPath id="presentation_clip_path" clipPathUnits="userSpaceOnUse">
   <rect x="0" y="0" width="2500" height="2500"/>
  </clipPath>
 </defs>
 <defs class="TextShapeIndex">
  <g ooo:slide="id1" ooo:id-list="id3 id4 id5 id6 id7 id8 id9 id10 id11"/>
 </defs>
 <defs class="EmbeddedBulletChars">
  <g id="bullet-char-template(57356)" transform="scale(0.00048828125,-0.00048828125)">
   <path d="M 580,1141 L 1163,571 580,0 -4,571 580,1141 Z"/>
  </g>
  <g id="bullet-char-template(57354)" transform="scale(0.00048828125,-0.00048828125)">
   <path d="M 8,1128 L 1137,1128 1137,0 8,0 8,1128 Z"/>
  </g>
  <g id="bullet-char-template(10146)" transform="scale(0.00048828125,-0.00048828125)">
   <path d="M 174,0 L 602,739 174,1481 1456,739 174,0 Z M 1358,739 L 309,1346 659,739 1358,739 Z"/>
  </g>
  <g id="bullet-char-template(10132)" transform="scale(0.00048828125,-0.00048828125)">
   <path d="M 2015,739 L 1276,0 717,0 1260,543 174,543 174,936 1260,936 717,1481 1274,1481 2015,739 Z"/>
  </g>
  <g id="bullet-char-template(10007)" transform="scale(0.00048828125,-0.00048828125)">
   <path d="M 0,-2 C -7,14 -16,27 -25,37 L 356,567 C 262,823 215,952 215,954 215,979 228,992 255,992 264,992 276,990 289,987 310,991 331,999 354,1012 L 381,999 492,748 772,1049 836,1024 860,1049 C 881,1039 901,1025 922,1006 886,937 835,863 770,784 769,783 710,716 594,584 L 774,223 C 774,196 753,168 711,139 L 727,119 C 717,90 699,76 672,76 641,76 570,178 457,381 L 164,-76 C 142,-110 111,-127 72,-127 30,-127 9,-110 8,-76 1,-67 -2,-52 -2,-32 -2,-23 -1,-13 0,-2 Z"/>
  </g>
  <g id="bullet-char-template(10004)" transform="scale(0.00048828125,-0.00048828125)">
   <path d="M 285,-33 C 182,-33 111,30 74,156 52,228 41,333 41,471 41,549 55,616 82,672 116,743 169,778 240,778 293,778 328,747 346,684 L 369,508 C 377,444 397,411 428,410 L 1163,1116 C 1174,1127 1196,1133 1229,1133 1271,1133 1292,1118 1292,1087 L 1292,965 C 1292,929 1282,901 1262,881 L 442,47 C 390,-6 338,-33 285,-33 Z"/>
  </g>
  <g id="bullet-char-template(9679)" transform="scale(0.00048828125,-0.00048828125)">
   <path d="M 813,0 C 632,0 489,54 383,161 276,268 223,411 223,592 223,773 276,916 383,1023 489,1130 632,1184 813,1184 992,1184 1136,1130 1245,1023 1353,916 1407,772 1407,592 1407,412 1353,268 1245,161 1136,54 992,0 813,0 Z"/>
  </g>
  <g id="bullet-char-template(8226)" transform="scale(0.00048828125,-0.00048828125)">
   <path d="M 346,457 C 273,457 209,483 155,535 101,586 74,649 74,723 74,796 101,859 155,911 209,963 273,989 346,989 419,989 480,963 531,910 582,859 608,796 608,723 608,648 583,586 532,535 482,483 420,457 346,457 Z"/>
  </g>
  <g id="bullet-char-template(8211)" transform="scale(0.00048828125,-0.00048828125)">
   <path d="M -4,459 L 1135,459 1135,606 -4,606 -4,459 Z"/>
  </g>
 </defs>
 <defs class="TextEmbeddedBitmaps"/>
 <g>
  <g id="id2" class="Master_Slide">
   <g id="bg-id2" class="Background"/>
   <g id="bo-id2" class="BackgroundObjects"/>
  </g>
 </g>
 <g class="SlideGroup">
  <g>
   <g id="id1" class="Slide" clip-path="url(#presentation_clip_path)">
    <g class="Page">
     <g class="com.sun.star.drawing.PolyPolygonShape">
      <g id="id3">
       <rect class="BoundingBox" stroke="none" fill="none" x="682" y="207" width="1821" height="2296"/>
      </g>
     </g>
     <g class="com.sun.star.drawing.PolyPolygonShape">
      <g id="id4">
       <rect class="BoundingBox" stroke="none" fill="none" x="682" y="208" width="1820" height="2294"/>
      </g>
     </g>
     <g class="com.sun.star.drawing.PolyPolygonShape">
      <g id="id5">
       <rect class="BoundingBox" stroke="none" fill="none" x="683" y="208" width="1817" height="2293"/>
       <path fill="rgb(4,139,200)" stroke="none" d="M 2456,926 L 2422,819 2379,716 2327,617 2267,524 2199,437 2123,356 2039,281 1949,214 1946,212 1943,211 1939,209 1936,209 1933,208 1930,208 1926,208 1923,209 1920,209 1917,211 1914,212 1911,214 1909,216 1907,218 1905,220 1903,223 1901,226 1900,229 1899,232 1898,235 1897,238 1897,241 1897,245 1897,248 1898,251 1899,254 1900,257 1902,260 1904,262 1906,265 1908,267 1911,269 1996,333 2076,403 2148,480 2213,563 2270,651 2320,744 2361,842 2393,944 2418,1062 2431,1180 2432,1296 2422,1411 2400,1524 2368,1634 2326,1739 2274,1840 2213,1936 2142,2025 2063,2108 1976,2183 1882,2249 1780,2307 1671,2355 1556,2392 1452,2415 1347,2428 1241,2432 1136,2427 1032,2412 929,2388 828,2355 731,2313 729,2312 727,2312 726,2311 724,2311 722,2310 720,2310 718,2310 717,2310 715,2310 712,2310 710,2311 708,2311 706,2312 704,2313 702,2314 700,2315 698,2316 696,2318 694,2319 692,2321 691,2323 689,2325 688,2327 687,2329 685,2332 684,2335 683,2338 683,2341 683,2345 683,2348 684,2351 685,2354 686,2357 688,2360 689,2362 691,2365 694,2367 696,2369 699,2371 702,2373 766,2402 832,2427 900,2449 968,2467 1038,2481 1108,2492 1179,2498 1250,2500 1290,2499 1331,2497 1372,2493 1412,2488 1493,2475 1573,2456 1691,2418 1804,2369 1910,2310 2010,2241 2103,2162 2188,2075 2264,1978 2331,1874 2388,1763 2433,1649 2467,1532 2489,1412 2498,1291 2496,1169 2482,1047 2456,926 Z"/>
      </g>
     </g>
     <g class="com.sun.star.drawing.PolyPolygonShape">
      <g id="id6">
       <rect class="BoundingBox" stroke="none" fill="none" x="0" y="0" width="1820" height="2295"/>
      </g>
     </g>
     <g class="com.sun.star.drawing.PolyPolygonShape">
      <g id="id7">
       <rect class="BoundingBox" stroke="none" fill="none" x="1" y="0" width="1819" height="2294"/>
      </g>
     </g>
     <g class="com.sun.star.drawing.PolyPolygonShape">
      <g id="id8">
       <rect class="BoundingBox" stroke="none" fill="none" x="2" y="0" width="1818" height="2293"/>
       <path fill="rgb(4,139,200)" stroke="none" d="M 109,1557 L 84,1439 71,1320 70,1203 80,1088 102,975 134,865 176,759 228,658 290,563 360,473 439,390 526,315 620,249 722,191 831,143 946,106 1050,83 1155,70 1261,66 1366,72 1470,86 1572,110 1673,143 1770,185 1773,187 1776,188 1780,188 1783,189 1786,189 1789,189 1792,188 1795,187 1798,186 1801,185 1804,183 1806,181 1809,178 1811,176 1813,173 1815,170 1816,167 1817,164 1818,161 1818,158 1818,154 1818,151 1817,148 1816,145 1815,142 1814,139 1812,137 1810,134 1808,132 1805,130 1803,128 1800,126 1735,97 1668,71 1601,50 1532,32 1463,18 1393,8 1323,2 1252,0 1211,1 1171,3 1130,6 1090,11 1049,17 1009,24 969,33 930,43 812,81 699,129 592,188 492,257 400,336 315,424 238,520 171,624 114,735 68,850 35,967 13,1088 3,1209 5,1331 19,1454 45,1575 79,1682 122,1784 174,1882 235,1975 303,2063 379,2144 463,2219 554,2286 557,2288 560,2289 563,2290 566,2291 569,2291 572,2291 576,2291 579,2291 582,2290 585,2289 588,2287 591,2286 593,2284 596,2282 598,2280 600,2277 602,2274 603,2271 604,2268 605,2265 606,2262 606,2258 606,2255 605,2252 604,2249 603,2246 602,2243 600,2240 598,2238 596,2235 594,2233 591,2231 505,2167 426,2097 353,2020 288,1937 231,1849 182,1756 141,1659 109,1557 Z"/>
      </g>
     </g>
     <g class="com.sun.star.drawing.PolyPolygonShape">
      <g id="id9">
       <rect class="BoundingBox" stroke="none" fill="none" x="267" y="266" width="1969" height="1971"/>
      </g>
     </g>
     <g class="com.sun.star.drawing.PolyPolygonShape">
      <g id="id10">
       <rect class="BoundingBox" stroke="none" fill="none" x="268" y="267" width="1968" height="1968"/>
      </g>
     </g>
     <g class="com.sun.star.drawing.PolyPolygonShape">
      <g id="id11">
       <rect class="BoundingBox" stroke="none" fill="none" x="270" y="268" width="1965" height="1966"/>
       <path fill="rgb(4,139,200)" stroke="none" d="M 1758,781 L 1747,835 1732,891 1715,950 1695,1010 1691,1020 1681,1016 1504,919 1487,909 1735,479 1744,492 1750,503 1755,516 1760,529 1764,543 1767,558 1770,574 1773,609 1773,648 1771,689 1766,734 1758,781 Z M 1839,606 L 1837,570 1857,601 1872,627 1886,654 1899,682 1911,711 1930,773 1944,838 1953,907 1957,977 1955,1050 1948,1124 1947,1136 1935,1132 1758,1053 1750,1050 1754,1041 1776,976 1796,913 1812,852 1824,794 1832,744 1837,696 1840,650 1840,628 1839,606 Z M 2013,742 L 2046,795 2074,850 2099,906 2121,963 2138,1022 2151,1081 2161,1142 2166,1202 2166,1216 2153,1212 2119,1201 2085,1190 2018,1165 2010,1163 2013,1154 2020,1101 2024,1049 2026,997 2025,945 2021,895 2015,846 2006,798 1995,751 1979,692 2013,742 Z M 2166,1293 L 2162,1344 2156,1393 2148,1442 2136,1489 2123,1536 2106,1582 2087,1627 2065,1671 2061,1681 1866,1568 1870,1560 1891,1522 1910,1483 1928,1444 1944,1404 1959,1363 1972,1323 1984,1282 1995,1240 1998,1229 2008,1232 2160,1285 2166,1287 2166,1293 Z M 2021,1746 L 1992,1790 1960,1831 1927,1870 1892,1906 1854,1941 1815,1974 1773,2004 1730,2032 1724,2036 1719,2031 1591,1918 1583,1910 1590,1902 1623,1872 1656,1841 1687,1809 1717,1775 1746,1741 1774,1706 1801,1670 1826,1632 1832,1625 2027,1738 2021,1746 Z M 1650,2076 L 1611,2094 1571,2110 1530,2124 1489,2135 1430,2149 1401,2155 1372,2159 1342,2163 1312,2165 1282,2167 1252,2167 1228,2167 1204,2166 1180,2164 1156,2161 1101,2156 1155,2143 1203,2129 1251,2112 1300,2092 1349,2068 1393,2045 1437,2018 1480,1989 1523,1957 1530,1953 1535,1958 1652,2059 1663,2069 1650,2076 Z M 962,2095 L 997,2078 1015,2069 1033,2058 1069,2034 1106,2006 1143,1975 1186,1937 1229,1895 1272,1849 1316,1799 1322,1793 1328,1797 1467,1902 1477,1910 1466,1918 1430,1944 1393,1967 1356,1989 1319,2009 1277,2030 1236,2047 1195,2062 1155,2074 1116,2084 1077,2090 1038,2094 1001,2095 962,2095 Z M 843,2056 L 827,2056 1074,1629 1082,1633 1258,1748 1267,1754 1260,1762 1220,1808 1180,1850 1140,1889 1100,1924 1063,1955 1028,1981 993,2004 960,2023 929,2037 914,2043 900,2048 886,2052 872,2054 859,2056 847,2056 843,2056 Z M 761,2009 L 752,1992 744,1972 739,1950 735,1925 732,1899 731,1870 734,1807 744,1737 759,1661 781,1580 809,1494 814,1484 824,1489 1001,1585 1017,1595 770,2022 761,2009 Z M 647,1888 L 634,1864 621,1838 600,1783 584,1724 572,1662 564,1596 561,1528 563,1457 570,1384 571,1372 583,1377 746,1451 754,1455 751,1463 730,1524 712,1582 697,1639 685,1693 675,1745 668,1794 665,1840 664,1883 666,1922 647,1888 Z M 516,1794 L 491,1759 468,1723 447,1686 428,1648 411,1610 395,1570 381,1530 369,1489 358,1443 349,1396 342,1348 338,1300 338,1286 352,1290 504,1345 511,1348 510,1356 503,1415 500,1472 498,1528 500,1583 504,1636 511,1688 521,1738 533,1785 548,1838 516,1794 Z M 338,1209 L 341,1160 348,1111 357,1063 368,1015 382,968 399,922 419,876 441,831 445,821 641,936 637,943 602,1021 571,1102 557,1143 545,1184 534,1227 525,1269 523,1280 512,1276 345,1218 338,1215 338,1209 Z M 483,756 L 512,714 544,673 577,634 613,597 650,562 689,529 730,499 773,470 780,466 785,471 901,576 909,582 901,590 869,621 839,653 809,686 780,721 753,756 727,793 702,831 678,869 673,876 478,764 483,756 Z M 853,426 L 893,409 934,393 975,379 1017,366 1053,357 1089,350 1126,344 1163,339 1200,336 1238,335 1276,335 1314,336 1374,341 1316,355 1271,368 1226,384 1182,403 1137,424 1094,448 1051,474 1008,503 967,534 961,538 955,534 851,442 841,433 853,426 Z M 1512,401 L 1549,403 1516,420 1497,430 1479,441 1441,466 1402,494 1362,526 1319,565 1276,608 1233,655 1189,705 1182,712 1176,706 1024,591 1014,583 1024,576 1080,536 1138,501 1197,471 1255,446 1314,426 1372,412 1430,403 1458,401 1486,400 1493,401 1499,401 1506,401 1512,401 Z M 1664,1090 L 1635,1158 1604,1226 1570,1294 1533,1364 1528,1371 1298,1237 1454,967 1471,976 1659,1078 1667,1083 1664,1090 Z M 1586,1406 L 1590,1396 1627,1327 1662,1258 1694,1189 1723,1121 1726,1112 1736,1117 1831,1160 1879,1181 1927,1200 1935,1203 1933,1211 1923,1253 1912,1293 1899,1333 1885,1373 1869,1412 1852,1451 1833,1489 1813,1526 1809,1535 1586,1406 Z M 1370,1732 L 1415,1672 1460,1608 1504,1542 1548,1472 1552,1463 1773,1592 1768,1599 1743,1636 1717,1672 1689,1706 1661,1740 1632,1772 1601,1804 1569,1834 1537,1863 1530,1867 1523,1863 1487,1834 1449,1805 1371,1746 1363,1741 1370,1732 Z M 1264,1295 L 1495,1430 1489,1439 1447,1508 1403,1573 1360,1636 1315,1695 1309,1703 1302,1697 1115,1576 1107,1571 1264,1295 Z M 841,1413 L 869,1345 901,1276 935,1207 973,1137 977,1129 1207,1263 1049,1537 1034,1528 845,1426 838,1422 841,1413 Z M 920,1096 L 915,1105 878,1174 843,1243 811,1312 782,1382 779,1391 769,1387 590,1308 582,1303 584,1295 593,1255 603,1214 615,1174 628,1133 643,1094 658,1054 675,1016 694,977 698,968 920,1096 Z M 1189,808 L 1195,802 1202,807 1390,928 1397,933 1240,1204 1011,1072 1015,1063 1057,996 1101,930 1145,868 1189,808 Z M 1135,771 L 1089,832 1045,896 1001,962 958,1030 953,1039 730,910 736,901 759,864 783,828 809,793 836,759 864,726 894,694 924,663 956,633 963,627 969,633 1133,758 1141,763 1135,771 Z M 1678,445 L 1670,459 1430,875 1422,871 1246,756 1237,750 1244,741 1284,696 1325,653 1365,614 1406,577 1443,547 1478,521 1513,498 1546,479 1577,465 1592,459 1606,454 1620,450 1634,448 1647,446 1659,445 1678,445 Z M 999,301 L 906,331 818,370 734,416 655,471 583,533 516,602 455,678 402,760 357,847 322,936 295,1028 278,1122 271,1217 272,1314 283,1410 304,1506 334,1599 373,1688 420,1771 474,1850 536,1922 605,1989 681,2049 763,2101 849,2145 938,2181 1031,2207 1125,2224 1220,2233 1316,2231 1411,2221 1459,2212 1506,2200 1599,2171 1687,2132 1771,2086 1850,2031 1923,1969 1990,1900 2050,1825 2103,1742 2149,1653 2185,1561 2211,1467 2227,1373 2234,1278 2232,1183 2221,1089 2200,997 2172,907 2134,820 2089,737 2035,658 1974,585 1904,517 1827,455 1743,400 1656,356 1566,320 1474,293 1381,276 1286,269 1190,270 1094,281 999,301 Z"/>
      </g>
     </g>
    </g>
   </g>
  </g>
 </g>
</svg>